<svg xmlns="http://www.w3.org/2000/svg" viewBox="0 0 50 50">
  <defs>
    <style>
      .cls-1 {
        fill: none;
      }
    </style>
  </defs>
  <title>home</title>
  <g id="frame">
    <rect class="cls-1" width="50" height="50"/>
  </g>
  <g id="icon">
    <path id="home" d="M45.79,26.74l-1.56,1.89a.9.9,0,0,1-1.26.12L26.57,15.17a1.66,1.66,0,0,0-2.14,0L8,28.75a.9.9,0,0,1-1.26-.12L5.21,26.74a.89.89,0,0,1,.12-1.27L23.16,10.71a3.68,3.68,0,0,1,4.65,0l6.54,5.42V10.31a.74.74,0,0,1,.74-.74h3.48a.74.74,0,0,1,.74.74V20.2l6.36,5.27A.89.89,0,0,1,45.79,26.74Zm-12.15-2.3-7.38-5.91a1.23,1.23,0,0,0-1.52,0l-7.38,5.91-5.92,4.73a1.2,1.2,0,0,0-.45.95V40.78a.65.65,0,0,0,.65.65H21a.66.66,0,0,0,.66-.65v-7.9a.65.65,0,0,1,.65-.65H28a.66.66,0,0,1,.66.65v7.9a.65.65,0,0,0,.65.65h9.31a.66.66,0,0,0,.66-.65V29.56a1.23,1.23,0,0,0-.46-1Z"/>
  </g>
</svg>
