<svg xmlns="http://www.w3.org/2000/svg" viewBox="0 0 50 50">
  <defs>
    <style>
      .cls-1 {
        fill: none;
      }
    </style>
  </defs>
  <title>key</title>
  <g id="frame">
    <rect class="cls-1" width="50" height="50"/>
  </g>
  <g id="icon">
    <path id="key" d="M42,46H8.05A4,4,0,0,1,4,42V8.05A4,4,0,0,1,8.05,4H42a4,4,0,0,1,4,4.05V42A4,4,0,0,1,42,46ZM29.57,29.11,32.23,37h3.44L27.17,12H23.28L14.82,37h3.32l2.59-7.84ZM21.4,26.59l2.44-7.21c.48-1.51.89-3,1.25-4.51h.08c.37,1.44.74,2.92,1.29,4.55l2.44,7.17Z"/>
  </g>
</svg>
