<svg xmlns="http://www.w3.org/2000/svg" viewBox="0 0 50 50">
  <defs>
    <style>
      .cls-1 {
        fill: none;
      }

      .cls-2 {
        fill: #d60d0d;
      }
    </style>
  </defs>
  <title>notifications</title>
  <g id="frame">
    <rect class="cls-1" width="50" height="50"/>
  </g>
  <g id="notifications">
    <path id="arrowRight" class="cls-2" d="M18,42a3,3,0,0,1-2.12-.88,3,3,0,0,1,0-4.24L27.76,25,15.88,13.12a3,3,0,0,1,4.24-4.24l14,14a3,3,0,0,1,0,4.24l-14,14A3,3,0,0,1,18,42Z"/>
    <path id="arrowUp" class="cls-2" d="M39,35a3,3,0,0,1-2.12-.88L25,22.24,13.12,34.12a3,3,0,1,1-4.24-4.24l14-14a3,3,0,0,1,4.24,0l14,14a3,3,0,0,1,0,4.24A3,3,0,0,1,39,35Z"/>
    <path id="arrowLeft" class="cls-2" d="M32,42a3,3,0,0,1-2.12-.88l-14-14a3,3,0,0,1,0-4.24l14-14a3,3,0,1,1,4.24,4.24L22.24,25,34.12,36.88a3,3,0,0,1,0,4.24A3,3,0,0,1,32,42Z"/>
    <path id="arrowDown" class="cls-2" d="M25,35a3,3,0,0,1-2.12-.88l-14-14a3,3,0,1,1,4.24-4.24L25,27.76,36.88,15.88a3,3,0,1,1,4.24,4.24l-14,14A3,3,0,0,1,25,35Z"/>
  </g>
</svg>
